<?xml version="1.0" standalone="no"?><!DOCTYPE svg PUBLIC "-//W3C//DTD SVG 1.1//EN" "http://www.w3.org/Graphics/SVG/1.1/DTD/svg11.dtd"><svg t="1585647384950" class="icon" viewBox="0 0 1024 1024" version="1.1" xmlns="http://www.w3.org/2000/svg" p-id="1312" xmlns:xlink="http://www.w3.org/1999/xlink" width="200" height="200"><defs><style type="text/css"></style></defs><path d="M243.2 796.4c-4.5 0-8.6-3.8-11.1-7.6-2.5-3.7-2.9-9.1-1.2-13.2l12.7-26.9c18.5-43.3 29.3-89.4 29.3-136.4V471.7C272.9 338.4 378 230 513 230s240.1 108.4 240.1 241.7v140.5c0 46.9 12.7 92.6 31.2 136l13 26.5c1.7 4.1 2.2 10.3-0.4 14.1-2.5 3.7-5.7 7.6-10.2 7.6H243.2z" fill="#FFC963" p-id="1313"></path><path d="M798.1 774.7l-13.7-26.5c-18.5-43.3-31.2-89.1-31.2-136V471.7c0-16.8-0.3-33.2-3.5-49 1.3-0.4 3.4-0.7 4.8-1.2-19.1-90.3-88.5-162.1-177.6-184.3-0.1 0.2 0.1 0.4 0 0.5-19.5-5-39.9-7.7-61.1-7.7-13.9 0-27.4 1.2-40.6 3.4 34.6 5.8 66.5 18.9 94.1 37.7-0.6 5-0.9 10.1-0.9 15.2 0 64.4 41.4 118.7 100 136.3 3.2 15.9 3.5 32.3 3.5 49.1v140.5c0 46.9 12.7 92.6 31.2 136l13 26.5c1.7 4.1 2.2 10.3-0.4 14.1s-5.7 7.6-10.2 7.6h81.3c4.5 0 8.1-3.8 10.6-7.6 2.5-3.7 2.5-9.9 0.7-14.1z" fill="#FFC963" opacity=".39" p-id="1314"></path><path d="M275.8 626.4c2.1-133 106.4-237.7 240-237.7s237.9 104.7 240 237.7h0.7c-0.4-7.4-3.4-15.5-3.4-21.5V464.3C753.1 331 648 222.6 513 222.6S272.9 331 272.9 464.3v140.5c0 6 2.6 14.2 2.2 21.5h0.7z" fill="#FFFFFF" opacity=".5" p-id="1315"></path><path d="M515.4 898.9c-58.5 0-106-47.4-106-106h211.9c0.1 58.6-47.4 106-105.9 106z" fill="#FFC963" p-id="1316"></path><path d="M423.7 848.1h183.4c9-14.8 14.3-36.9 14.3-51.7h-212c0 14.8 5.3 36.9 14.3 51.7z" fill="#FFC963" opacity=".39" p-id="1317"></path><path d="M515.4 920.3c-62.9 0-114.1-51.2-114.1-114.1v-14.8h228.3v14.8c-0.1 62.9-51.3 114.1-114.2 114.1zM432.1 821c7 39.6 41.7 69.8 83.3 69.8 41.6 0 76.3-30.2 83.3-69.8H432.1z" fill="#5E125C" p-id="1318"></path><path d="M787 822.4H250.4c-13.5 0-26.1-6.9-33.9-18.6-8-12.1-9.6-27.1-4.1-40.2l11.1-26.5c15.1-35.9 22.2-74.7 22.2-122l0.4-54.3c0.1-8.2 6.6-14.4 14.9-14.7 8.2 0.1 14.7 6.7 14.7 14.9l-0.4 54.2c0 51.3-7.8 93.7-24.5 133.4L239.7 775c-1.6 3.9-1.1 8.6 1.4 12.4 1.1 1.6 4.1 5.4 9.2 5.4H787c5.1 0 8.2-3.8 9.2-5.4 2.6-3.8 3.1-8.5 1.4-12.4l-11.2-26.5c-21.1-50.1-30.5-91.1-30.5-133.1V467.7c0-132.6-104.3-236.4-237.4-236.4-114.4 0-213.5 81.3-235.7 193.4-1.6 8-9.4 13.2-17.4 11.6-8-1.6-13.2-9.4-11.6-17.4 25-125.9 136.3-217.2 264.8-217.2 149.7 0 266.9 116.8 266.9 266v147.8c0 37.9 8.7 75.4 28.2 121.6l11.2 26.5c5.5 13.1 4 28.1-4.1 40.2-7.7 11.6-20.3 18.6-33.8 18.6z" fill="#5E125C" p-id="1319"></path><path d="M260.9 526.8c-8.2 0-14.8-6.6-14.8-14.8v-33.1c0-8.2 6.6-14.8 14.8-14.8 8.2 0 14.8 6.6 14.8 14.8V512c0 8.2-6.6 14.8-14.8 14.8z" fill="#5E125C" p-id="1320"></path><path d="M249.5 752l-11.2 24.6c-1.7 4.1-1.3 9.4 1.2 13.1 2.5 3.7 6.5 6.6 10.9 6.6H787c4.5 0 8.5-3.8 10.9-7.6 2.5-3.7 2.9-9.1 1.2-13.2l-11.2-23.2c-6.6-15.7-12-29.9-16.2-44.7h-506c-4.2 14.9-9.6 28.7-16.2 44.4zM513 110.8c-18.3 0-33.3 14.8-33.3 33.1V220h66.5v-76.1c0.1-18.3-14.9-33.1-33.2-33.1z" fill="#F8F9FB" p-id="1321"></path><path d="M719 726.3H250.5c-8.2 0-14.8-6.6-14.8-14.8s6.6-14.8 14.8-14.8H719c8.2 0 14.8 6.6 14.8 14.8s-6.6 14.8-14.8 14.8zM561.1 234.8H465v-90.9c0-26.4 21.5-47.9 48-47.9s48 21.5 48 47.9v90.9z m-66.5-29.5h36.9v-61.4c0-10.1-8.3-18.3-18.5-18.3s-18.5 8.2-18.5 18.3v61.4z" fill="#5E125C" p-id="1322"></path><path d="M717.4 273m-96 0a96 96 0 1 0 192 0 96 96 0 1 0-192 0Z" fill="#E2696C" p-id="1323"></path><path d="M717.4 383.9c-61.1 0-110.8-49.7-110.8-110.8s49.7-110.8 110.8-110.8c18.5 0 36.9 4.7 53.1 13.5 14.3 7.8 26.9 18.9 36.5 32 7.6 10.4 13.2 21.9 16.8 34.1 3 10.1 4.4 20.6 4.4 31.2 0 61-49.7 110.8-110.8 110.8z m0-192.1c-44.8 0-81.3 36.5-81.3 81.3s36.5 81.3 81.3 81.3 81.3-36.5 81.3-81.3c0-7.8-1.1-15.5-3.3-22.9-2.6-9-6.8-17.4-12.3-25-7-9.6-16.3-17.8-26.8-23.5-11.8-6.5-25.3-9.9-38.9-9.9z" fill="#5E125C" p-id="1324"></path><path d="M366.2 379c-3 0-6.1-0.9-8.8-2.9-6.6-4.8-8-14.1-3.1-20.7 40.3-54.7 104.8-87.3 172.6-87.3 8.2 0 14.8 6.6 14.8 14.8s-6.6 14.8-14.8 14.8c-58.5 0-114.1 28.1-148.8 75.3-2.9 3.9-7.4 6-11.9 6zM327.4 497.2c-8.2 0-14.8-6.6-14.8-14.8 0-30.4 6.2-59.8 18.5-87.3 3.3-7.5 12.1-10.8 19.5-7.5 7.5 3.3 10.8 12.1 7.5 19.5-10.6 23.7-16 49-16 75.3 0.1 8.2-6.5 14.8-14.7 14.8z" fill="#FFFFFF" p-id="1325"></path></svg>