<?xml version="1.0" standalone="no"?><!DOCTYPE svg PUBLIC "-//W3C//DTD SVG 1.1//EN" "http://www.w3.org/Graphics/SVG/1.1/DTD/svg11.dtd"><svg t="1585647578287" class="icon" viewBox="0 0 1024 1024" version="1.1" xmlns="http://www.w3.org/2000/svg" p-id="2323" xmlns:xlink="http://www.w3.org/1999/xlink" width="200" height="200"><defs><style type="text/css"></style></defs><path d="M236.5 560.8V396.6c0-21.5 17.4-38.9 38.9-38.9h451.5c21.5 0 38.9 17.4 38.9 38.9v434c0 21.5-17.4 38.9-38.9 38.9H274.7c-21.5 0-38.9-17.4-38.9-38.9V665.7" fill="#D0DDEA" p-id="2324"></path><path d="M726.9 883.3H274.7c-29 0-52.7-23.6-52.7-52.7V665.7c0-7.6 6.2-13.8 13.8-13.8 7.6 0 13.8 6.2 13.8 13.8v164.9c0 13.9 11.3 25.1 25.1 25.1h452.2c13.9 0 25.1-11.3 25.1-25.1v-434c0-13.9-11.3-25.1-25.1-25.1H275.4c-13.9 0-25.1 11.3-25.1 25.1v164.2c0 7.6-6.2 13.8-13.8 13.8s-13.8-6.2-13.8-13.8V396.6c0-29 23.6-52.7 52.7-52.7h451.5c29 0 52.7 23.6 52.7 52.7v434c-0.1 29-23.7 52.7-52.7 52.7z" fill="#5E125C" p-id="2325"></path><path d="M202.2 456.5V263.8c0-26.1 21.2-47.3 47.3-47.3h517c26.1 0 47.3 21.2 47.3 47.3V774c0 26.1-21.2 47.3-47.3 47.3H248.7c-26.1 0-47.3-21.2-47.3-47.3V580.4" fill="#F8F9FB" p-id="2326"></path><path d="M813.9 400.6V263c0-26.1-21.2-47.3-47.3-47.3H235.8c-26.1 0-47.3 21.2-47.3 47.3v137.7h625.4z" fill="#E2696C" p-id="2327"></path><path d="M754.9 226.6H247.4c-25 0-44.5 21.5-44.5 44.6v47.7c0-17.2 9.9-30.4 25.9-30.4h552.7c10.3 0 20.2 10 20.2 19.5v-36.8c0.1-23.1-21.8-44.6-46.8-44.6z" fill="#FFFFFF" opacity=".5" p-id="2328"></path><path d="M766.6 835.1H235c-33.7 0-61.1-27.4-61.1-61.1V580.4c0-7.6 6.2-13.8 13.8-13.8s13.8 6.2 13.8 13.8V774c0 18.5 15.1 33.6 33.6 33.6h531.6c18.5 0 33.6-15.1 33.6-33.6V263.8c0-18.5-15.1-33.6-33.6-33.6H235.8c-18.5 0-33.6 15.1-33.6 33.6v192.7c0 7.6-6.2 13.8-13.8 13.8-7.6 0-13.8-6.2-13.8-13.8V263.8c0-33.7 27.4-61.1 61.1-61.1h530.8c33.7 0 61.1 27.4 61.1 61.1V774c0.1 33.7-27.3 61.1-61 61.1z" fill="#5E125C" p-id="2329"></path><path d="M813.9 415.2c-7.6 0-13.8-6.2-13.8-13.8V263.8c0-18.5-15.1-33.6-33.6-33.6H235.8c-18.5 0-33.6 15.1-33.6 33.6v123.9h563.5c7.6 0 13.8 6.2 13.8 13.8 0 7.6-6.2 13.8-13.8 13.8h-591V263.8c0-33.7 27.4-61.1 61.1-61.1h530.8c33.7 0 61.1 27.4 61.1 61.1v137.7c0 7.6-6.2 13.7-13.8 13.7zM187.6 552.9c-7.6 0-13.8-6.2-13.8-13.8v-41.3c0-7.6 6.2-13.8 13.8-13.8s13.8 6.2 13.8 13.8v41.3c0 7.6-6.2 13.8-13.8 13.8z" fill="#5E125C" p-id="2330"></path><path d="M321.8 305.1c-17.1 0-31-13.9-31-31v-96.4c0-17.1 13.9-31 31-31s31 13.9 31 31v96.4c0 17.2-13.9 31-31 31z" fill="#F8F9FB" p-id="2331"></path><path d="M321.8 318.9c-24.7 0-44.7-20.1-44.7-44.7v-96.4c0-24.7 20.1-44.7 44.7-44.7s44.7 20.1 44.7 44.7v96.4c0.1 24.6-20 44.7-44.7 44.7z m0-158.3c-9.5 0-17.2 7.7-17.2 17.2v96.4c0 9.5 7.7 17.2 17.2 17.2s17.2-7.7 17.2-17.2v-96.4c0-9.5-7.7-17.2-17.2-17.2z" fill="#5E125C" p-id="2332"></path><path d="M679.7 305.1c-17.1 0-31-13.9-31-31v-96.4c0-17.1 13.9-31 31-31s31 13.9 31 31v96.4c0 17.2-13.9 31-31 31z" fill="#F8F9FB" p-id="2333"></path><path d="M679.7 318.9c-24.7 0-44.7-20.1-44.7-44.7v-96.4c0-24.7 20.1-44.7 44.7-44.7s44.7 20.1 44.7 44.7v96.4c0.1 24.6-20 44.7-44.7 44.7z m0-158.3c-9.5 0-17.2 7.7-17.2 17.2v96.4c0 9.5 7.7 17.2 17.2 17.2s17.2-7.7 17.2-17.2v-96.4c0-9.5-7.7-17.2-17.2-17.2zM717.6 566.7H284c-7.6 0-13.8-6.2-13.8-13.8s6.2-13.8 13.8-13.8h433.6c7.6 0 13.8 6.2 13.8 13.8s-6.2 13.8-13.8 13.8zM717.6 669.9H284c-7.6 0-13.8-6.2-13.8-13.8 0-7.6 6.2-13.8 13.8-13.8h433.6c7.6 0 13.8 6.2 13.8 13.8 0 7.6-6.2 13.8-13.8 13.8z" fill="#5E125C" p-id="2334"></path><path d="M345.9 731.8c-7.6 0-13.8-6.2-13.8-13.8V504.7c0-7.6 6.2-13.8 13.8-13.8s13.8 6.2 13.8 13.8v213.4c0 7.6-6.2 13.7-13.8 13.7zM449.2 731.8c-7.6 0-13.8-6.2-13.8-13.8V504.7c0-7.6 6.2-13.8 13.8-13.8s13.8 6.2 13.8 13.8v213.4c-0.1 7.6-6.2 13.7-13.8 13.7zM552.4 731.8c-7.6 0-13.8-6.2-13.8-13.8V504.7c0-7.6 6.2-13.8 13.8-13.8 7.6 0 13.8 6.2 13.8 13.8v213.4c0 7.6-6.2 13.7-13.8 13.7zM655.6 731.8c-7.6 0-13.8-6.2-13.8-13.8V504.7c0-7.6 6.2-13.8 13.8-13.8s13.8 6.2 13.8 13.8v213.4c0 7.6-6.2 13.7-13.8 13.7z" fill="#5E125C" p-id="2335"></path><path d="M359.7 565.8h75.7v77.4h-75.7z" fill="#ABCF79" p-id="2336"></path></svg>