<?xml version="1.0" standalone="no"?><!DOCTYPE svg PUBLIC "-//W3C//DTD SVG 1.1//EN" "http://www.w3.org/Graphics/SVG/1.1/DTD/svg11.dtd"><svg t="1585647432350" class="icon" viewBox="0 0 1024 1024" version="1.1" xmlns="http://www.w3.org/2000/svg" p-id="1453" xmlns:xlink="http://www.w3.org/1999/xlink" width="200" height="200"><defs><style type="text/css"></style></defs><path d="M126.9 424.4V297c0-43.5 35.3-78.8 78.8-78.8h653.9c43.5 0 78.8 35.3 78.8 78.8v425.3c0 43.5-35.3 78.8-78.8 78.8h-654c-43.5 0-78.8-35.3-78.8-78.8V563" fill="#EDF1F7" p-id="1454"></path><path d="M185.4 797.9h678.9c29.2 0 54.7-21.1 68.5-44.6L588.6 422.4c-33.6-33.6-88.2-35-121.8-1.3L119 757.4c14.3 21.6 38.7 40.5 66.4 40.5z" fill="#D0DDEA" p-id="1455"></path><path d="M859.6 817.2H186.8c-52.2 0-94.7-42.5-94.7-94.7V563.2c0-8.8 7.1-16 16-16s16 7.1 16 16v159.3c0 34.6 28.2 62.8 62.8 62.8h672.7c34.6 0 62.8-28.2 62.8-62.8V297.1c0-34.6-28.2-62.8-62.8-62.8H186.8c-34.6 0-62.8 28.2-62.8 62.8v127.4c0 8.8-7.1 16-16 16s-16-7.1-16-16V297.1c0-52.2 42.5-94.7 94.7-94.7h672.7c52.2 0 94.7 42.5 94.7 94.7v425.3c0.2 52.3-42.3 94.8-94.5 94.8z" fill="#5E125C" p-id="1456"></path><path d="M108.2 526.6c-8.8 0-16-7.1-16-16v-37.5c0-8.8 7.1-16 16-16s16 7.1 16 16v37.5c-0.1 8.9-7.2 16-16 16zM864.3 813.8H185.4c-29.7 0-59.5-16.7-79.7-47.4l-7.3-10.2 357.2-346.6c39.2-39.2 104-38.2 144.2 2.1L953 752l-6.4 9.3c-15.4 26.1-45.1 52.5-82.3 52.5z m-724-54.6c11.4 13 27.5 22.7 45.1 22.7h678.9c19.3 0 36.4-11.9 47.8-26.5L577.5 433.9c-28-28-72.6-29.2-99.5-2.3L140.3 759.2z" fill="#5E125C" p-id="1457"></path><path d="M853.2 215.1h-660c-28.5 0-53.2 6-66.7 29.3l334.6 352.2c32.7 33.3 85.8 30.9 118.6-2.4l338.1-352c-13.8-21.4-37.6-27.1-64.6-27.1z" fill="#F8F9FB" p-id="1458"></path><path d="M587.3 587.1c-41.5 41.6-100.8 36.2-133.6 2.8l-248-251.7 248 296.6c29.6 33.2 97.1 30.7 133.6-2.8l246.1-293.8-246.1 248.9z" fill="#D0DDEA" p-id="1459"></path><path d="M517.8 637c-25.8 0-50-10.1-68-28.4l-343-360.2 6-12c18.3-31.7 52.6-37.3 80.5-37.3h660c26.4 0 59.1 5.4 78 34.5 4.8 7.4 2.7 18.1-4.7 22.9-7.4 4.8-17.3 1.5-22.1-5.9-8.6-13.2-22.9-19.6-51.2-19.6h-660c-22.5 0-36.5 4.8-45.5 12.4l325 342.1c11.8 12 27.8 19.1 45 19.1 18.6 0 37.1-7.7 50.6-21.5L859 283c6.1-6.3 16.2-6.5 22.6-0.3 6.3 6.1 6.5 16.3 0.4 22.6L591.2 605.7c-19.5 19.9-46.3 31.3-73.4 31.3z" fill="#5E125C" p-id="1460"></path></svg>