<?xml version="1.0" standalone="no"?><!DOCTYPE svg PUBLIC "-//W3C//DTD SVG 1.1//EN" "http://www.w3.org/Graphics/SVG/1.1/DTD/svg11.dtd"><svg t="1585647357330" class="icon" viewBox="0 0 1024 1024" version="1.1" xmlns="http://www.w3.org/2000/svg" p-id="1173" xmlns:xlink="http://www.w3.org/1999/xlink" width="200" height="200"><defs><style type="text/css"></style></defs><path d="M814.9 137.7H192.6c-65.2 0-56.4-0.5-56.4 68.2V829c0 59.1-12.1 66 55.3 66h687c6.5 0 11.9-4.3 11.9-10.9V215.5l-75.5-77.8z" fill="#995D91" p-id="1174"></path><path d="M658.8 451.7H358.1c-44.5 0-80.6-36.1-80.6-80.6V121.7h462v249.4c-0.1 44.5-36.2 80.6-80.7 80.6z" fill="#EDF1F7" p-id="1175"></path><path d="M739.4 140.6h-462c-10.4 0-18.9-8.4-18.9-18.9 0-10.4 8.4-18.9 18.9-18.9h462c10.4 0 18.9 8.4 18.9 18.9 0 10.4-8.5 18.9-18.9 18.9z" fill="#5E125C" p-id="1176"></path><path d="M658.8 470.5H358.1c-54.8 0-99.5-44.6-99.5-99.5V206.6c0-10.4 8.4-18.9 18.9-18.9s18.9 8.4 18.9 18.9v164.5c0 34 27.7 61.8 61.8 61.8H659c34 0 61.8-27.7 61.8-61.8V121.7c0-10.4 8.4-18.9 18.9-18.9s18.9 8.4 18.9 18.9v249.4c-0.3 54.8-44.9 99.4-99.8 99.4z" fill="#5E125C" p-id="1177"></path><path d="M635.7 404.6c-10.4 0-18.9-8.4-18.9-18.9v-198c0-10.4 8.4-18.9 18.9-18.9s18.9 8.4 18.9 18.9v198c0 10.4-8.5 18.9-18.9 18.9z" fill="#5E125C" p-id="1178"></path><path d="M844.3 923.1H181.1c-45.6 0-82.8-37.1-82.8-82.8V593.1c0-10.4 8.4-18.9 18.9-18.9s18.9 8.4 18.9 18.9v247.2c0 24.8 20.2 45.1 45.1 45.1h663.2c25.4 0 46-20.6 46-46V263.8c0-13.6-5.3-26.4-14.9-36l-72.2-72.2c-9.6-9.6-22.4-14.9-36.1-14.9H182c-25.4 0-46 20.6-46 46v142.6c0 10.4-8.4 18.9-18.9 18.9s-18.9-8.4-18.9-18.9V186.6c0-46.2 37.5-83.7 83.7-83.7h585c23.7 0 46 9.2 62.7 26l72.2 72.2c16.8 16.7 26 39 26 62.7v575.6c0.2 46.1-37.4 83.7-83.5 83.7z" fill="#5E125C" p-id="1179"></path><path d="M117.3 515.9c-10.4 0-18.9-8.4-18.9-18.9v-75.4c0-10.4 8.4-18.9 18.9-18.9s18.9 8.4 18.9 18.9V497c0 10.4-8.4 18.9-18.9 18.9z" fill="#5E125C" p-id="1180"></path><path d="M694.7 828.8H322.2c-24.7 0-44.7-20-44.7-44.7V571.8c0-24.7 20-44.7 44.7-44.7h372.5c24.7 0 44.7 20 44.7 44.7v212.3c0 24.7-20 44.7-44.7 44.7z" fill="#FFC963" p-id="1181"></path><path d="M694.7 847.7H322.2c-35.1 0-63.6-28.5-63.6-63.6V571.8c0-35.1 28.5-63.6 63.6-63.6h372.5c35.1 0 63.6 28.5 63.6 63.6v212.3c0 35-28.5 63.6-63.6 63.6zM322.2 546c-14.3 0-25.9 11.6-25.9 25.9v212.3c0 14.3 11.6 25.9 25.9 25.9h372.5c14.3 0 25.9-11.6 25.9-25.9V571.8c0-14.3-11.6-25.9-25.9-25.9H322.2z" fill="#5E125C" p-id="1182"></path><path d="M607.4 659.1h-198c-10.4 0-18.9-8.4-18.9-18.9s8.4-18.9 18.9-18.9h198c10.4 0 18.9 8.4 18.9 18.9s-8.4 18.9-18.9 18.9zM607.4 734.5h-198c-10.4 0-18.9-8.4-18.9-18.9s8.4-18.9 18.9-18.9h198c10.4 0 18.9 8.4 18.9 18.9s-8.4 18.9-18.9 18.9z" fill="#5E125C" p-id="1183"></path><path d="M773.1 137.7H192.6c-65.2 0-56.4-0.5-56.4 67v539.4c216.8-201.6 428.6-399 636.9-606.4z" fill="#FFFFFF" opacity=".1" p-id="1184"></path></svg>