<?xml version="1.0" standalone="no"?><!DOCTYPE svg PUBLIC "-//W3C//DTD SVG 1.1//EN" "http://www.w3.org/Graphics/SVG/1.1/DTD/svg11.dtd"><svg t="1585647484651" class="icon" viewBox="0 0 1024 1024" version="1.1" xmlns="http://www.w3.org/2000/svg" p-id="1586" xmlns:xlink="http://www.w3.org/1999/xlink" width="200" height="200"><defs><style type="text/css"></style></defs><path d="M824.3 259.1H480.2c1.5 0 2.3-7.5 2.3-11.8 0-18.8-15.3-33.7-34.1-33.7H289.2c-18.8 0-34.1 14.9-34.1 33.7 0 4.3 0.9 11.8 2.3 11.8h-40.9c-20 0-34.5 11.8-34.5 35.6V651c0 17.5 15.7 32.6 33.3 32.6h610.2c17.6 0 31.3-15.1 38.8-32.6V294.7c0.1-19.4-20-35.6-40-35.6z" fill="#77CAF7" p-id="1587"></path><path d="M825.5 698.8H217.2c-8.4 0-15.2-6.8-15.2-15.2 0-8.4 6.8-15.2 15.2-15.2h608.3c10.3 0 16.1-9.6 23.7-18.3v-272c0-8.4 6.8-15.2 15.2-15.2 8.4 0 15.2 6.8 15.2 15.2V651c0 0.5-1.4 2.1-1.4 2.5-2.4 24.8-26.2 45.3-52.7 45.3zM182.1 416c-8.4 0-15.2-6.8-15.2-15.2V294.7c0-30.3 19.8-50.7 49.7-50.7H240c1.8-30.3 23.1-45.5 49.2-45.5h159.2c26 0 47.4 15.2 49.2 45.5h326.7c27.9 0 55.2 22.5 55.2 50.7v15.2c0 8.4-6.8 15.2-15.2 15.2-8.4 0-15.2-6.8-15.2-15.2v-15.2c0-11.5-13.7-20.4-24.9-20.4h-344c-8.4 0-15.2-7.9-15.2-16.3 0-2.8 0.7-5.9 2-8.2 0.2-1.2 0.3-2 0.3-3.3 0-10.4-8.3-17.7-19-17.7H289.2c-10.6 0-19 7-19 17.4 0 1.3 0.1 2.4 0.3 3.6 1.3 2.2 2 5.7 2 8.5 0 8.4-6.8 16-15.2 16h-40.9c-10.2 0-19.4 3.6-19.4 20.4v106.1c0.2 8.4-6.6 15.2-14.9 15.2z m296.8-174.3z m-220.1 0z m221.1 0c-0.4 0-0.7 0-1.1 0.1 0.4-0.1 0.8-0.1 1.1-0.1z m-222.2 0c0.4 0 0.7 0 1.1 0.1-0.4-0.1-0.8-0.1-1.1-0.1zM480 244z m-222.4 0z m222.4 0z m-222.4 0z m-0.1 0s0.1 0 0 0c0.1 0 0.1 0 0 0z m222.6 0z m-222.6-2.3z m222.6 0z m0.1 0z m-222.7 0z" fill="#5E125C" p-id="1588"></path><path d="M790.2 544.9H247.9c-8.6 0-15.5-7-15.5-15.5V317.9c0-8.6 7-15.5 15.5-15.5h542.3c10.1 0 18.3 8.2 18.3 18.3v206c0 10-8.2 18.2-18.3 18.2z" fill="#F8F9FB" p-id="1589"></path><path d="M790.2 560.1H247.9c-16.9 0-30.7-13.8-30.7-30.7V317.9c0-16.9 13.8-30.7 30.7-30.7h542.3c18.5 0 33.5 15 33.5 33.5v206c0 18.3-15 33.4-33.5 33.4zM247.9 317.5l-0.4 211.9 542.7 0.4c1.7 0 3.2-1.4 3.2-3.2v-206c0-1.7-1.4-3.2-3.2-3.2H247.9z" fill="#5E125C" p-id="1590"></path><path d="M791.5 802.7H249.3c-31.1 0-57.1-23.7-59.9-54.7l-27-319.5c-3.2-35.2 24.5-65.6 59.9-65.6h596.1c35.4 0 63.1 30.4 59.9 65.6l-27 319.5c-2.7 31-28.7 54.7-59.8 54.7z" fill="#77CAF7" p-id="1591"></path><path d="M818.5 365.3h-18.7l-28.9 340.6c-1.2 13.2-12.3 23.3-25.5 23.3H187.5l1.9 21.1c2.8 31 28.8 54.7 59.9 54.7h542.2c31.1 0 57.1-24.9 59.9-55.8l27-320c2-21.9-8-41.1-24.4-53.1-9.9-7.4-22.2-10.8-35.5-10.8z" fill="#5EA8FF" opacity=".29" p-id="1592"></path><path d="M681.3 372.9H223.1c-19.4 0-33.9 2.7-44.5 10.2-11.3 12-17.7 28.1-16.1 46l27 319.2c2.3 25.1 19.8 45.4 43 52.1 152.9-143.7 305.2-283.6 452.1-428.5-1.1 0-2.2 1-3.3 1z" fill="#FFFFFF" opacity=".1" p-id="1593"></path><path d="M174.8 590.4c-7.8 0-14.4-6-15.1-13.9l-1.9-22.7c-0.7-8.3 5.5-15.7 13.8-16.4 8.3-0.7 15.7 5.5 16.4 13.8l1.9 22.7c0.7 8.3-5.5 15.7-13.8 16.4-0.5 0.1-0.9 0.1-1.3 0.1z" fill="#5E125C" p-id="1594"></path><path d="M787.2 817.8H253.6c-41.6 0-75.9-31.3-79.7-72.7l-9.8-115.5c-0.7-8.3 5.5-15.7 13.8-16.4 8.3-0.7 15.7 5.5 16.4 13.8l9.8 115.4c2.3 25.7 23.6 45.1 49.4 45.1h533.6c25.9 0 47.1-19.4 49.5-45.2l29.2-343.5c0.5-5.4-1.2-10.6-4.9-14.5-3.6-4-8.6-6.2-13.9-6.2H193.8c-5.4 0-10.3 2.2-13.9 6.2-3.6 4-5.4 9.1-4.9 14.5l7.8 99.5c0.7 8.3-5.6 15.6-13.9 16.3-8.5 0.6-15.7-5.6-16.3-13.9l-7.8-99.3c-1.2-13.5 3.4-27.3 12.7-37.5 9.3-10.2 22.6-16 36.3-16H847c13.8 0 27 5.8 36.3 16 9.3 10.2 13.9 23.9 12.7 37.6L866.9 745c-3.8 41.6-38 72.8-79.7 72.8z" fill="#5E125C" p-id="1595"></path></svg>