<?xml version="1.0" standalone="no"?><!DOCTYPE svg PUBLIC "-//W3C//DTD SVG 1.1//EN" "http://www.w3.org/Graphics/SVG/1.1/DTD/svg11.dtd"><svg t="1585647273550" class="icon" viewBox="0 0 1024 1024" version="1.1" xmlns="http://www.w3.org/2000/svg" p-id="1039" xmlns:xlink="http://www.w3.org/1999/xlink" width="200" height="200"><defs><style type="text/css"></style></defs><path d="M782.5 305.1c-21-21-29-50-24.1-77.2 4.3-23.7-8.3-47.3-30.3-57.1-5-2.2-10-4.3-15-6.3-22.9-9-48.8-0.7-62.6 19.6-15.6 23.1-42.1 38.3-72.1 38.3-30.5 0-57.3-15.7-72.8-39.4-13.5-20.5-39.4-28.9-62.3-20.2-4.6 1.7-9.1 3.6-13.6 5.5-22.8 9.7-36.4 34.3-30.8 58.5 6.6 28.4-1.1 59.4-23.2 81.5-22.1 22.1-53.1 29.8-81.5 23.2-24.1-5.6-48.8 8-58.5 30.8-1.8 4.3-3.6 8.6-5.2 12.9-9 23.4 0.1 49.8 21.3 63.1 24.7 15.4 41.2 42.8 41.2 74.1 0 30.5-15.7 57.3-39.4 72.9-21.1 13.8-30 40.4-20.4 63.7 1.7 4.1 3.4 8.2 5.3 12.2 10.3 22.7 35 36.2 59.3 30.7 28.2-6.4 59 1.3 81 23.3 21 21 29 50.1 24 77.3-4.5 24.5 8.2 49 31.3 58.5 4.9 2 9.9 4 14.9 5.8 22.6 8.2 48 0.2 61.3-19.9 15.6-23.5 42.2-39 72.6-39 29 0 54.6 14.1 70.5 35.9 14.1 19.3 38.7 27.6 60.8 18.7 5.8-2.4 11.6-4.9 17.4-7.5 21.4-9.9 33.9-32.9 29.8-56.1-4.7-27 3.4-55.8 24.2-76.7 20.2-20.2 47.9-28.4 74.2-24.6 23.6 3.5 46.5-9.3 55.9-31.1 2.5-5.7 4.8-11.5 7-17.3 8.4-22.4-0.1-46.9-19.3-61.1-21.3-15.9-35.2-41.3-35.2-69.9 0-28.6 13.8-54 35.1-69.8 19.1-14.3 27.5-38.7 18.9-61.1-2.2-5.7-4.5-11.3-7-16.9-9.7-22-33-34.6-56.7-30.6-26.7 4.1-55.2-4-76-24.7z m-92.3 291c-58.1 74.9-170 74.9-228.2 0-39.6-51-39.6-124.2 0-175.3 58.1-74.9 170-74.9 228.2 0 39.6 51 39.6 124.2 0 175.3z" fill="#EDF1F7" p-id="1040"></path><path d="M467.2 875.4c-7.8 0-15.8-1.4-23.6-4.2-5.2-1.9-10.4-3.9-15.5-6-29.9-12.4-46.7-43.6-40.8-75.9 4.2-23.1-3.1-46.7-19.7-63.3-17.4-17.4-42.3-24.6-66.4-19.1-31.2 7.1-63.6-9.5-77.2-39.5-1.9-4.2-3.7-8.5-5.5-12.7-12.3-30-1.2-64.8 26.3-82.9 20.2-13.3 32.3-35.6 32.3-59.7 0-24.8-12.6-47.5-33.7-60.7-27.7-17.3-39.4-51.8-27.7-82.1 1.7-4.5 3.5-9 5.5-13.4 13.1-30.5 45.3-47.3 76.6-39.9 24.2 5.7 49.2-1.4 66.7-19 17.6-17.6 24.7-42.5 19-66.7-7.3-31.3 9.5-63.5 40-76.5 4.7-2 9.4-3.9 14.2-5.7 29.6-11.3 63.7-0.2 81.1 26.3 13.2 20.2 35.5 32.3 59.6 32.3 23.7 0 45.7-11.7 59-31.4 18.1-26.8 51.6-37.2 81.4-25.5 5.2 2.1 10.5 4.3 15.6 6.6 28.8 12.9 45 43.4 39.4 74.3-4.2 23.1 3.2 46.7 19.7 63.2 16.3 16.3 39.6 23.7 62.3 19.9 30.8-5.2 61.2 11.2 73.8 39.8 2.6 5.8 5 11.7 7.3 17.6 10.9 28.5 1.1 60.4-24.2 79.3-18.3 13.6-28.7 34.5-28.7 57.2 0 22.8 10.5 43.6 28.8 57.3 25.4 18.9 35.3 50.8 24.6 79.3-2.3 6.1-4.7 12.1-7.3 18-12.3 28.3-42.1 44.9-72.7 40.4-22.5-3.3-44.7 4-60.8 20.1-16.4 16.4-23.8 39.9-19.8 62.8 5.2 30-10.7 60.1-38.7 73.1-6 2.8-12 5.4-18.1 7.9-28.2 11.4-60.9 1.5-79.5-24-13.4-18.4-35-29.4-57.7-29.4-23.9 0-46.2 11.9-59.4 31.9-12.7 19.5-34 30.3-56.2 30.3zM317.5 673.6c26.9 0 52.9 10.6 72.5 30.1 23.9 23.9 34.5 58 28.4 91.3-3.2 17.6 5.7 34.5 21.8 41.1 4.7 2 9.5 3.8 14.2 5.5 15.9 5.8 33.5 0.1 42.8-13.8 19.1-28.8 51.2-46 85.7-46 32.8 0 63.9 15.8 83.2 42.3 10.2 14 27.2 19.4 42.2 13.3 5.6-2.3 11.2-4.7 16.6-7.2 15.1-7 23.7-23.1 20.9-39.1-5.8-33 4.9-66.9 28.6-90.5 22.9-22.9 55.6-33.7 87.7-29 16.4 2.4 32.6-6.5 39.2-21.8 2.4-5.5 4.6-11 6.7-16.6 5.7-15.3 0.1-32.5-13.9-43-26-19.3-41.5-50.2-41.5-82.6 0-32.8 15.1-62.8 41.4-82.5 14-10.4 19.5-27.6 13.7-42.8-2.1-5.4-4.3-10.8-6.7-16.2-6.8-15.4-23.1-24.2-39.7-21.4-32.8 5.5-66.4-5.2-89.9-28.7-23.9-23.9-34.5-57.9-28.4-91.2 3-16.6-5.7-33-21.2-39.9-4.7-2.1-9.5-4.1-14.3-6-16-6.3-34-0.6-43.8 13.8-19.2 28.3-51 45.2-85.1 45.2-34.8 0-66.9-17.4-86-46.5-9.3-14.2-27.6-20.2-43.5-14.1-4.4 1.7-8.7 3.4-13 5.2-16.1 6.9-25.4 24.2-21.6 40.4 8.2 34.9-2.1 70.9-27.4 96.2-25.3 25.3-61.3 35.6-96.2 27.4-16.1-3.8-33.5 5.5-40.5 21.7-1.8 4.1-3.4 8.2-5 12.3-6.3 16.2 0 34.7 15 44 30.4 18.9 48.6 51.6 48.6 87.4 0 34.8-17.4 67-46.5 86-14.9 9.8-21 28.5-14.5 44.6 1.6 3.9 3.3 7.8 5 11.7 7.4 16.4 24.9 25.6 41.5 21.8 7.6-1.5 15.3-2.4 23-2.4z m258.6-5.6c-49.7 0-95.8-22.7-126.5-62.3-43.8-56.4-43.8-138.2 0-194.6 30.7-39.6 76.8-62.3 126.5-62.3s95.8 22.7 126.5 62.3c43.8 56.4 43.8 138.2 0 194.6-30.7 39.6-76.8 62.3-126.5 62.3z m0-287.6c-39.9 0-76.9 18.3-101.6 50.1-35.1 45.2-35.1 110.8 0 155.9 24.7 31.8 61.7 50.1 101.6 50.1 39.9 0 76.9-18.3 101.6-50.1 35.1-45.2 35.1-110.8 0-155.9-24.7-31.9-61.7-50.1-101.6-50.1z m114.1 215.7z" fill="#5E125C" p-id="1041"></path><path d="M479.1 673.2c0-4.8-0.3-9.6-0.7-14.4-0.1-1.3-0.3-2.6-0.4-3.9-0.4-3.8-1-7.6-1.7-11.4-0.2-0.9-0.3-1.9-0.5-2.8-0.9-4.5-2.1-8.8-3.4-13.1-0.5-1.7-1.2-3.4-1.7-5.1-1-2.9-2-5.8-3.2-8.7-0.7-1.8-1.6-3.6-2.4-5.4-1.2-2.6-2.4-5.3-3.8-7.8-0.9-1.8-1.9-3.5-2.9-5.2-1.4-2.5-2.9-4.9-4.4-7.3-1.1-1.7-2.2-3.3-3.3-4.9l-4.2-5.7c-2-2.6-4.1-5.2-6.3-7.7-1.4-1.6-2.9-3.3-4.4-4.8-2.3-2.4-4.7-4.8-7.2-7-1.6-1.4-3.1-2.9-4.7-4.3-2.7-2.3-5.6-4.5-8.5-6.6-1.5-1.1-2.9-2.3-4.5-3.3-3.9-2.7-8-5.2-12.2-7.6-0.6-0.3-1.1-0.7-1.7-1.1l-0.6-0.3c-3.8-2.1-7.7-3.9-11.7-5.6-0.9-0.4-1.8-0.8-2.7-1.1-4.1-1.7-8.3-3.2-12.6-4.6-0.8-0.2-1.5-0.4-2.3-0.7-3.9-1.2-7.9-2.2-12-3.1-0.7-0.2-1.4-0.3-2.2-0.5-4.5-0.9-9-1.6-13.6-2.1-1-0.1-2-0.2-3.1-0.3-4.7-0.4-9.5-0.7-14.4-0.7-10 0-19.7 1-29.2 2.8-2.1 27.7-17 51.8-39 66.2-21.1 13.8-30 40.4-20.4 63.7 1.7 4.1 3.4 8.2 5.3 12.2 10.3 22.7 35 36.2 59.3 30.7 28.2-6.4 59 1.3 81 23.3 21 21 29 50.1 24 77.3-1 5.3-1 10.6-0.4 15.8 45.9-27.6 76.7-77.6 76.7-134.9z" fill="#EDF1F7" p-id="1042"></path><path d="M115.459372 736.418559a157.2 157.2 0 1 0 286.669254-129.104992 157.2 157.2 0 1 0-286.669254 129.104992Z" fill="#ABCF79" p-id="1043"></path><path d="M258.5 845c-47.8 0-94.6-19.9-128.2-57.2-5.8-6.5-5.3-16.4 1.1-22.3 6.5-5.8 16.4-5.3 22.3 1.2 41.3 45.8 106.9 59.5 163.1 34.2 34.5-15.5 60.8-43.5 74.2-78.8 13.4-35.3 12.2-73.8-3.3-108.2-5.6-12.3-12.8-23.8-21.5-34-10.6-12.4-23.2-22.8-37.5-30.9-18.1-10.3-38.6-16.6-59.3-18.2-23.4-1.8-47.2 2.4-68.8 12.1-51.6 23.2-84.3 74.8-83.4 131.3 0.1 8.7-6.8 15.9-15.5 16-8.5 0.5-15.9-6.8-16-15.5-1.1-69.1 38.9-132.2 102-160.6 26.4-11.9 55.5-17 84.2-14.8 25.3 2 50.3 9.6 72.4 22.2 17.4 9.9 32.8 22.6 45.8 37.8 10.7 12.5 19.5 26.5 26.3 41.5 19 42.1 20.4 89.1 4 132.3-16.4 43.2-48.6 77.5-90.7 96.4-22.9 10.5-47.2 15.5-71.2 15.5z" fill="#5E125C" p-id="1044"></path><path d="M241.6 725c-4 0-8.1-1.5-11.1-4.6L196 685.9c-6.2-6.2-6.2-16.1 0-22.3 6.2-6.2 16.1-6.2 22.3 0l23.3 23.3 72.6-72.6c6.2-6.2 16.1-6.2 22.3 0 6.2 6.2 6.2 16.1 0 22.3l-83.7 83.7c-3.1 3.2-7.2 4.7-11.2 4.7z" fill="#5E125C" p-id="1045"></path></svg>