<?xml version="1.0" standalone="no"?><!DOCTYPE svg PUBLIC "-//W3C//DTD SVG 1.1//EN" "http://www.w3.org/Graphics/SVG/1.1/DTD/svg11.dtd"><svg t="1585647526330" class="icon" viewBox="0 0 1024 1024" version="1.1" xmlns="http://www.w3.org/2000/svg" p-id="1860" xmlns:xlink="http://www.w3.org/1999/xlink" width="200" height="200"><defs><style type="text/css"></style></defs><path d="M231.4 532.2V371.5c0-25.6 20.7-46.3 46.3-46.3h478.6c25.6 0 46.3 20.7 46.3 46.3v443.3c0 25.6-20.7 46.3-46.3 46.3H276.9c-25.6 0-46.3-20.7-46.3-46.3V653.3" fill="#E2696C" p-id="1861"></path><path d="M217.1 464.1h578.7v67.3H217.1z" fill="#E2696C" opacity=".37" p-id="1862"></path><path d="M459.4 484.3h114.4v376.8H459.4z" fill="#FFC963" p-id="1863"></path><path d="M756.3 874.5H263.4c-32.9 0-59.7-26.8-59.7-59.7V653.3c0-7.4 6-13.5 13.5-13.5 7.4 0 13.5 6 13.5 13.5v161.5c0 18.1 14.7 32.8 32.8 32.8h492.9c18.1 0 32.8-14.7 32.8-32.8V371.5c0-18.1-14.7-32.8-32.8-32.8h-492c-18.1 0-32.8 14.7-32.8 32.8v153.9c0 7.4-6 13.5-13.5 13.5-7.4 0-13.5-6-13.5-13.5V371.5c0-32.9 26.8-59.7 59.7-59.7h492c32.9 0 59.7 26.8 59.7 59.7v443.3c0 32.9-26.8 59.7-59.7 59.7z" fill="#5E125C" p-id="1864"></path><path d="M217.1 619.7c-7.4 0-13.5-6-13.5-13.5v-33.6c0-7.4 6-13.5 13.5-13.5 7.4 0 13.5 6 13.5 13.5v33.6c0 7.4-6.1 13.5-13.5 13.5z" fill="#5E125C" p-id="1865"></path><path d="M836.2 470V335.4c0-25.6-20.7-46.3-46.3-46.3H229.8c-25.6 0-46.3 20.7-46.3 46.3V470h652.7z" fill="#E2696C" p-id="1866"></path><path d="M778.4 300.2H241.3c-38.8 0-47.6 9.1-47.6 46.2v64.4c0-24.2 23.1-43.3 47.6-43.3h537.1c24.5 0 41.1 19.1 41.1 43.3v-64.4c0-36-5.7-46.2-41.1-46.2z" fill="#FFFFFF" opacity=".5" p-id="1867"></path><path d="M480.8 293.2l-154.4-69.8 52.4-62.1 129.1 95zM681.4 168c-10.2-13.9-33.3-16.9-47.1-6.7l-114 88.5 29.6 40.2 175.6-68.7" fill="#FFC963" p-id="1868"></path><path d="M384.9 174.7c5.9 0 11.8 1.8 16.9 5.6l106.1 78.1-27.1 36.9-164.5-59.6 45.6-49.3c5.6-7.7 14.3-11.7 23-11.7m0-26.9c-17 0-33.2 7.9-43.6 21.2l-44.7 48.3-27.6 29.8 38.1 13.8 164.5 59.6 18.9 6.9 11.9-16.2 27.1-36.9 16-21.7-21.7-16-106.1-78.1c-9.5-7-20.9-10.7-32.8-10.7z" fill="#5E125C" p-id="1869"></path><path d="M545.2 306.2l-43.5-59.1L626 150.6c9.7-7.2 22.4-10.1 35-8.4 12.7 1.8 23.9 8.1 30.9 17.4l55.8 67.3-202.5 79.3z m-6.2-53.9l15.7 21.3 148.6-58.1-32.7-39.5c-2.7-3.6-7.6-6.2-13.2-7-5.7-0.8-11.3 0.4-15.1 3.2L539 252.3z" fill="#5E125C" p-id="1870"></path><path d="M812.8 483.4H206.9c-20.3 0-36.9-16.6-36.9-36.9V335.4c0-32.9 26.8-59.7 59.7-59.7h560.2c32.9 0 59.7 26.8 59.7 59.7v111.1c0 20.4-16.5 36.9-36.8 36.9z m-583-180.8c-18.1 0-32.8 14.7-32.8 32.8v111.1c0 5.5 4.5 10 10 10h605.8c5.5 0 10-4.5 10-10V335.4c0-18.1-14.7-32.8-32.8-32.8H229.8z" fill="#5E125C" p-id="1871"></path><path d="M445.9 302.6h141.3v154.8H445.9z" fill="#FFCD7D" p-id="1872"></path><path d="M291.1 235.3h141.3v40.4H291.1zM600.7 235.3H742v40.4H600.7z" fill="#F5D781" p-id="1873"></path><path d="M432.4 235.3v40.4H291.1v-15.2c0-13.9 11.3-25.2 25.2-25.2h116.1m27-26.9H316.3c-28.7 0-52.1 23.4-52.1 52.1V302.6H459.3V208.4h0.1zM716.8 235.3c13.9 0 25.2 11.3 25.2 25.2v15.2H600.7v-40.4h116.1m0-26.9h-143V302.6H768.9V260.5c0-28.8-23.4-52.1-52.1-52.1zM573.8 874.5H445.9V538.1c0-7.4 6-13.5 13.5-13.5 7.4 0 13.5 6 13.5 13.5v309.5h100.9c7.4 0 13.5 6 13.5 13.5s-6.1 13.4-13.5 13.4z" fill="#5E125C" p-id="1874"></path><path d="M573.8 793.8c-7.4 0-13.5-6-13.5-13.5v-296H459.4c-7.4 0-13.5-6-13.5-13.5s6-13.5 13.5-13.5h127.9v323c-0.1 7.5-6.1 13.5-13.5 13.5z" fill="#5E125C" p-id="1875"></path><path d="M607.4 484.3H425.7V275.7h181.7v208.6z m-154.8-27h127.9V302.6H452.6v154.7z" fill="#5E125C" p-id="1876"></path><path d="M586.2 276.7H444.9v-21c0-33 26.7-59.7 59.7-59.7h21.9c33 0 59.7 26.7 59.7 59.7v21z" fill="#F5D781" p-id="1877"></path><path d="M600.7 302.6H432.4v-41.2c0-40.3 32.8-73.2 73.2-73.2h21.9c40.3 0 73.2 32.8 73.2 73.2v41.2z m-141.3-26.9h114.4v-14.3c0-25.5-20.8-46.3-46.3-46.3h-21.9c-25.5 0-46.3 20.8-46.3 46.3v14.3z" fill="#5E125C" p-id="1878"></path><path d="M459.4 484.3h100.9v47.1H459.4zM459.4 255.5h114.4v20.2H459.4z" fill="#F5D781" opacity=".5" p-id="1879"></path><path d="M291.1 255.5h141.3v20.2H291.1zM600.7 255.5H742v20.2H600.7z" fill="#FFC963" p-id="1880"></path><path d="M570.5 804.8v53.8H456.1v-53.8H213.9v15.6c0 29.9 27.5 51.7 57.4 51.7h470.4c29.9 0 50.9-21.8 50.9-51.7v-15.6H570.5z" fill="#E2696C" opacity=".37" p-id="1881"></path><path d="M472.8 807.3h100.9v40.4H472.8z" fill="#F5D781" opacity=".5" p-id="1882"></path></svg>