<?xml version="1.0" standalone="no"?><!DOCTYPE svg PUBLIC "-//W3C//DTD SVG 1.1//EN" "http://www.w3.org/Graphics/SVG/1.1/DTD/svg11.dtd"><svg t="1585647546787" class="icon" viewBox="0 0 1024 1024" version="1.1" xmlns="http://www.w3.org/2000/svg" p-id="2010" xmlns:xlink="http://www.w3.org/1999/xlink" width="200" height="200"><defs><style type="text/css"></style></defs><path d="M96.2 198.6c0-62.6-7.1-61.2 53.3-61.2h775.9v555.1c0 11.9-9.6 21.5-21.5 21.5H148.5c-62.4 0-52.3-7.3-52.3-61.2V198.6z" fill="#F8F9FB" p-id="2011"></path><path d="M96.2 190.7h24.9v470.2H96.2z" fill="#77CAF7" p-id="2012"></path><path d="M121.1 190.7H146v470.2h-24.9z" fill="#76C9F7" p-id="2013"></path><path d="M146 190.7h24.9v470.2H146z" fill="#75C8F7" p-id="2014"></path><path d="M170.9 190.7h24.9v470.2h-24.9z" fill="#75C7F8" p-id="2015"></path><path d="M195.8 190.7h24.9v470.2h-24.9z" fill="#74C6F8" p-id="2016"></path><path d="M220.7 190.7h24.9v470.2h-24.9z" fill="#73C5F8" p-id="2017"></path><path d="M245.6 190.7h24.9v470.2h-24.9z" fill="#72C4F8" p-id="2018"></path><path d="M270.5 190.7h24.9v470.2h-24.9z" fill="#72C3F9" p-id="2019"></path><path d="M295.4 190.7h24.9v470.2h-24.9z" fill="#71C2F9" p-id="2020"></path><path d="M320.3 190.7h24.9v470.2h-24.9z" fill="#70C1F9" p-id="2021"></path><path d="M345.2 190.7h24.9v470.2h-24.9z" fill="#6FC0F9" p-id="2022"></path><path d="M370.1 190.7H395v470.2h-24.9z" fill="#6FBFFA" p-id="2023"></path><path d="M395 190.7h24.9v470.2H395z" fill="#6EBEFA" p-id="2024"></path><path d="M419.9 190.7h24.9v470.2h-24.9z" fill="#6DBDFA" p-id="2025"></path><path d="M444.8 190.7h24.9v470.2h-24.9z" fill="#6CBCFA" p-id="2026"></path><path d="M469.7 190.7h24.9v470.2h-24.9z" fill="#6CBBFB" p-id="2027"></path><path d="M494.6 190.7h24.9v470.2h-24.9z" fill="#6BBAFB" p-id="2028"></path><path d="M519.6 190.7h24.9v470.2h-24.9z" fill="#6AB8FB" p-id="2029"></path><path d="M544.5 190.7h24.9v470.2h-24.9z" fill="#69B7FB" p-id="2030"></path><path d="M569.4 190.7h24.9v470.2h-24.9z" fill="#69B6FC" p-id="2031"></path><path d="M594.3 190.7h24.9v470.2h-24.9z" fill="#68B5FC" p-id="2032"></path><path d="M619.2 190.7h24.9v470.2h-24.9z" fill="#67B4FC" p-id="2033"></path><path d="M644.1 190.7H669v470.2h-24.9z" fill="#66B3FC" p-id="2034"></path><path d="M669 190.7h24.9v470.2H669z" fill="#66B2FD" p-id="2035"></path><path d="M693.9 190.7h24.9v470.2h-24.9z" fill="#65B1FD" p-id="2036"></path><path d="M718.8 190.7h24.9v470.2h-24.9z" fill="#64B0FD" p-id="2037"></path><path d="M743.7 190.7h24.9v470.2h-24.9z" fill="#63AFFD" p-id="2038"></path><path d="M768.6 190.7h24.9v470.2h-24.9z" fill="#63AEFE" p-id="2039"></path><path d="M793.5 190.7h24.9v470.2h-24.9z" fill="#62ADFE" p-id="2040"></path><path d="M818.4 190.7h24.9v470.2h-24.9z" fill="#61ACFE" p-id="2041"></path><path d="M843.3 190.7h24.9v470.2h-24.9z" fill="#60ABFE" p-id="2042"></path><path d="M868.2 190.7h24.9v470.2h-24.9z" fill="#60AAFF" p-id="2043"></path><path d="M893.1 190.7H918v470.2h-24.9z" fill="#5FA9FF" p-id="2044"></path><path d="M918 190.7h24.9v470.2H918z" fill="#5EA8FF" p-id="2045"></path><path d="M105.3 188.2c-5 0-7 5.8-7 9.9v455c0 4.3 2.4 6.9 7.9 6.9h132.5c163.7-166 311.2-314.5 472.5-471.7H105.3z" fill="#FFFFFF" opacity=".1" p-id="2046"></path><path d="M133.2 188.2H88c-5.1 0-7.2 5.8-7.2 9.9v455c0 4.3 2.5 6.9 8.1 6.9h44.3V188.2z" fill="#FFFFFF" p-id="2047"></path><path d="M78.7 486.9c-9.6 0-17.5-7.8-17.5-17.5v-78.6c0-9.6 7.8-17.5 17.5-17.5s17.5 7.8 17.5 17.5v78.6c0 9.7-7.8 17.5-17.5 17.5z" fill="#5E125C" p-id="2048"></path><path d="M872.7 749H149c-48.4 0-87.7-39.3-87.7-87.7v-122c0-9.6 7.8-17.5 17.5-17.5s17.5 7.8 17.5 17.5v122c0 29.1 23.7 52.8 52.8 52.8h723.7c29.1 0 52.8-23.7 52.8-52.8V180.1c0-23.5-19.1-42.6-42.6-42.6H139c-23.5 0-42.6 19.1-42.6 42.6v149.6c0 9.6-7.8 17.5-17.5 17.5s-17.5-7.8-17.5-17.5V180.1c0-42.8 34.8-77.6 77.6-77.6h744c42.8 0 77.6 34.8 77.6 77.6v481.2c-0.2 48.3-39.6 87.7-87.9 87.7z" fill="#5E125C" p-id="2049"></path><path d="M78.7 215.5c-9.6 0-17.5-7.8-17.5-17.5 0-13.7 12-24.9 26.8-24.9h785c9.6 0 17.5 7.8 17.5 17.5 0 9.6-7.8 17.5-17.5 17.5H93c-3.1 4.5-8.4 7.4-14.3 7.4z" fill="#5E125C" p-id="2050"></path><path d="M932.7 678.3H95.2c-9.6 0-17.5-7.8-17.5-17.5s7.8-17.5 17.5-17.5h833.2c3.1-4.7 8.5-7.8 14.6-7.8 9.6 0 17.5 7.8 17.5 17.5-0.1 14-12.5 25.3-27.8 25.3z" fill="#5E125C" p-id="2051"></path><path d="M435.9 731.5h174.7V880H435.9z" fill="#F8F9FB" p-id="2052"></path><path d="M628 897.5H418.4V714H628v183.5z m-174.7-34.9h139.8V749H453.3v113.6z" fill="#5E125C" p-id="2053"></path><path d="M802.8 897.5H252.4c-9.6 0-17.5-7.8-17.5-17.5s7.8-17.5 17.5-17.5h550.4c9.6 0 17.5 7.8 17.5 17.5s-7.9 17.5-17.5 17.5z" fill="#5E125C" p-id="2054"></path></svg>