<?xml version="1.0" standalone="no"?><!DOCTYPE svg PUBLIC "-//W3C//DTD SVG 1.1//EN" "http://www.w3.org/Graphics/SVG/1.1/DTD/svg11.dtd"><svg t="1585647564774" class="icon" viewBox="0 0 1024 1024" version="1.1" xmlns="http://www.w3.org/2000/svg" p-id="2180" xmlns:xlink="http://www.w3.org/1999/xlink" width="200" height="200"><defs><style type="text/css"></style></defs><path d="M228 410V241.1c0-26.9 21.8-48.7 48.7-48.7h503.1c26.9 0 48.7 21.8 48.7 48.7V792c0 26.9-21.8 48.7-48.7 48.7h-504c-26.9 0-48.7-21.8-48.7-48.7V537.3" fill="#FFC963" p-id="2181"></path><path d="M830.1 479.7V244.6L820 225.8H228.3c-0.1 0 0.6-0.4 0.6 1.1V395.8l-1 89.4c6.1 1.1 12.3 3.3 18.8 3.3 48.8 0 88.4-36.4 91-85.9h0.5c2.6 49.5 42.4 86.5 91.2 86.5s88.6-36.9 91.2-86.5h0.5c2.6 49.5 42.4 86.5 91.2 86.5s88.6-36.9 91.2-86.5h0.5c2.6 49.5 43.2 84.8 92 84.8 11.7 0.1 19.9-3.7 34.1-7.7z" fill="#E2A33D" opacity=".48" p-id="2182"></path><path d="M830.1 805.9c0-19.5-15.8-35.4-35.4-35.4H264.2c-19.5 0-35.4 15.8-35.4 35.4 0 19.5 15.8 35.4 35.4 35.4h530.5c19.5 0 35.4-15.9 35.4-35.4z" fill="#FFC963" opacity=".39" p-id="2183"></path><path d="M518.7 840.7H320.6V566.2c0-16.4 13.3-29.7 29.7-29.7h138.6c16.4 0 29.7 13.3 29.7 29.7v274.5z" fill="#F8F9FB" p-id="2184"></path><path d="M214.5 600.2c-7.8 0-14.1-6.3-14.1-14.1v-49.5c0-7.8 6.3-14.1 14.1-14.1s14.1 6.3 14.1 14.1V586c0 7.8-6.3 14.2-14.1 14.2zM779.8 854.8H261.7c-34.4 0-61.3-28-61.3-63.7V628.4c0-7.8 6.3-14.1 14.1-14.1s14.1 6.3 14.1 14.1v162.7c0 19.8 14.5 35.4 33 35.4h518.1c17.9 0 36-8.8 36-28.3v-290c0-7.8 6.3-14.1 14.1-14.1s14.1 6.3 14.1 14.1v290c0.1 32.8-26.9 56.6-64.1 56.6zM213.9 412.7c-7.8 0-14.1-6.3-14.1-14.1V246.2c0-35 28.2-63.4 62.8-63.4h517.2c36.8 0 64.3 37.3 64.3 70.7 0 7.8-6.3 14.1-14.1 14.1s-14.1-6.3-14.1-14.1c0-21-18.2-42.4-36-42.4H262.5c-19 0-34.5 15.8-34.5 35.1v152.3c0 7.8-6.3 14.2-14.1 14.2zM214.5 508.2c-7.8 0-14.1-6.3-14.1-14.1v-63.7c0-7.8 6.3-14.1 14.1-14.1s14.1 6.3 14.1 14.1V494c0 7.9-6.3 14.2-14.1 14.2z" fill="#5E125C" p-id="2185"></path><path d="M886.3 352.7c0.1-1.4 0.2-2.2 0.2-3.5 0-1.7-0.2-3.1-0.3-4.8l-2.3-1.3L820 175.7H221.5s-0.1 0-0.1 0.1l-65.8 175.7c-0.5 1.1-0.7 2.2-0.7 3.3 0 50.5 40.9 85.4 91.4 85.4 48.8 0 88.6-38 91.2-87.5h0.5c2.6 49.5 42.4 86.5 91.2 86.5s88.6-36.9 91.2-86.5h0.5c2.6 49.5 42.4 86.5 91.2 86.5 48.8 0 88.6-36.9 91.2-86.5h0.5c2.6 49.5 42.4 86.5 91.2 86.5s88.6-36.9 91.2-86.5h0.3-0.2z" fill="#E2696C" p-id="2186"></path><path d="M886.5 352.6h-0.2v0.2l0.2-0.2z" fill="#F8F9FB" p-id="2187"></path><path d="M886.2 344.4l-2.3-0.9L820 176.3H674.3L702.6 361c0.3-2.6 0.6-7.8 0.8-7.8h0.5c2.6 49.5 42.4 86.5 91.2 86.5 48.8 0 88.6-36.9 91.2-86.5h0.1c0.1 0 0.2-2.4 0.2-3.7-0.1-1.7-0.3-3.4-0.4-5.1zM518.8 176.3H363l-28.3 195.5c1.5-6 2.5-11.6 2.9-18.6h0.5c2.6 49.5 42.5 86.2 91.3 86.2 44.2 0 82.4-30.6 89.5-73.1v-190z" fill="#F8F9FB" p-id="2188"></path><path d="M886.3 352.7l0.2-0.2h-0.2v0.2z" fill="#FFFFFF" opacity=".5" p-id="2189"></path><path d="M886.2 344.4l-2.3-0.9L820 176.3H221.5l-0.1-0.3-65.8 175.6c-0.5 1.1-0.7 2.1-0.7 3.2 0 15.4 3.8 29.3 10.6 41.2l37.2-99.3c5.5-14.8 15.4-27.2 28.4-36.2 12.9-9 28.3-13.5 44.1-13.5h507.4c22.6 0 42.8 13.6 50.8 34.7l42 110.2c6.2-11.6 10.1-24.6 10.9-38.8h0.1c0.1 0 0.2-2.4 0.2-3.7-0.1-1.6-0.3-3.3-0.4-5z" fill="#FFFFFF" opacity=".5" p-id="2190"></path><path d="M800.1 451.6c-41.3 0-77.4-21.1-96.4-52.7-18.6 31.6-54.1 52.7-94.6 52.7-38.6 0-70.9-19.4-88.4-50-17.5 30.6-49.8 50-88.4 50-40.5 0-75.9-21.1-94.6-52.7-19 31.6-55.1 52.7-96.4 52.7-59.2 0-100.5-39.8-100.5-96.9 0-2.9 0.6-5.8 1.8-8.7L191 216.7c6.1-16.3 16.9-30.1 31.2-40 14.3-9.9 31-15.1 48.4-15.1h511.7c28.4 0 54.2 17.8 64.3 44.3l48.8 127.8c2.9 2.5 4.7 6.1 4.9 10l0.1 1.4c0.1 1.4 0.2 2.7 0.2 4.2 0 1.1 0 1.9-0.1 2.8 0.1 1.2 0 2.5-0.3 3.6-4 56.6-44.9 95.9-100.1 95.9z m-96.7-113.2c7.5 0 14.2 5.9 14.6 13.4 2.1 40.1 38.2 71.5 82.2 71.5 40.8 0 69.7-28.7 72-71.5 0-0.3 0-0.6 0.1-0.9-0.6-0.9-1.1-1.8-1.5-2.8l-50.5-132.2c-6-15.6-21.2-26.1-37.9-26.1H270.6c-11.6 0-22.8 3.5-32.3 10.1-9.5 6.6-16.7 15.9-20.8 26.7L169.1 356c0.6 41 28.8 67.4 72.2 67.4 44 0 80-31.4 82.2-71.5 0.4-7.5 6.6-13.4 14.1-13.4s14.2 5.9 14.6 13.4c2.1 40.1 37.3 71.5 80.1 71.5 41.4 0 71.8-29.4 74-71.5 0.4-7.5 6.6-13.4 14.1-13.4s14.2 5.9 14.6 13.4c2.2 42.1 32.7 71.5 74 71.5 42.8 0 78-31.4 80.1-71.5 0.5-7.6 6.7-13.5 14.3-13.5zM320.6 854.8c-7.8 0-14.1-6.3-14.1-14.1V566.2c0-24.2 19.7-43.9 43.9-43.9H489c24.2 0 43.9 19.7 43.9 43.9v203.7c0 7.8-6.3 14.1-14.1 14.1s-14.1-6.3-14.1-14.1V566.2c0-8.6-7-15.6-15.6-15.6H350.3c-8.6 0-15.6 7-15.6 15.6v274.5c0 7.8-6.3 14.1-14.1 14.1z" fill="#5E125C" p-id="2191"></path><path d="M717.5 685H614.9c-14 0-25.5-11.5-25.5-25.5V560c0-13 10.5-23.5 23.5-23.5h108.6c13 0 23.5 10.5 23.5 23.5v97.5c0 15.1-12.4 27.5-27.5 27.5z" fill="#F8F9FB" p-id="2192"></path><path d="M717.5 699.2H614.9c-21.9 0-39.7-17.8-39.7-39.7V560c0-20.8 16.9-37.6 37.6-37.6h108.6c20.8 0 37.6 16.9 37.6 37.6v97.5c0.2 23-18.5 41.7-41.5 41.7zM612.9 550.6c-5.2 0-9.3 4.2-9.3 9.3v99.5c0 6.3 5.1 11.4 11.4 11.4h102.6c7.4 0 13.4-6 13.4-13.4V560c0-5.2-4.2-9.3-9.3-9.3H612.9zM370.1 734.6c-7.8 0-14.1-6.3-14.1-14.1v-56.6c0-7.8 6.3-14.1 14.1-14.1s14.1 6.3 14.1 14.1v56.6c0.1 7.7-6.3 14.1-14.1 14.1z" fill="#5E125C" p-id="2193"></path><path d="M886.5 352.6h-0.2v0.2l0.2-0.2z" fill="#5E125C" opacity=".2" p-id="2194"></path><path d="M155.7 351.8c-0.5 1.1-0.7 2.1-0.7 3.1 0 50.5 40.9 85.6 91.4 85.6 48.8 0 88.6-37.8 91.2-87.3h0.5c2.6 49.5 42.4 86.5 91.2 86.5s88.6-36.9 91.2-86.5h0.5c2.6 49.5 42.4 86.5 91.2 86.5s88.6-36.9 91.2-86.5h0.5c2.6 49.5 42.4 86.5 91.2 86.5 48.8 0 88.6-36.9 91.2-86.5h0.1c0.1 0 0.2-2.4 0.2-3.7 0-1.7-0.2-3.3-0.3-5l-2.3-1-4.5-11.5H163.2l-7.5 19.8z" fill="#5E125C" opacity=".1" p-id="2195"></path></svg>