<?xml version="1.0" standalone="no"?><!DOCTYPE svg PUBLIC "-//W3C//DTD SVG 1.1//EN" "http://www.w3.org/Graphics/SVG/1.1/DTD/svg11.dtd"><svg t="1585647506109" class="icon" viewBox="0 0 1024 1024" version="1.1" xmlns="http://www.w3.org/2000/svg" p-id="1721" xmlns:xlink="http://www.w3.org/1999/xlink" width="200" height="200"><defs><style type="text/css"></style></defs><path d="M707.2 844.9H321c-31.2 0-57.7-22.7-62.5-53.4L201 427.3h626.3l-57.5 364.1c-4.9 30.8-31.4 53.5-62.6 53.5z" fill="#77CAF7" p-id="1722"></path><path d="M236.6 668.4c-7.4 0-13.9-5.4-15.1-13l-6.1-38.4c-1.3-8.4 4.4-16.2 12.8-17.6 8.3-1.3 16.2 4.4 17.6 12.8l6.1 38.4c1.3 8.4-4.4 16.2-12.8 17.6-0.9 0.1-1.7 0.2-2.5 0.2z" fill="#5E125C" p-id="1723"></path><path d="M707.2 860.2H321c-38.9 0-71.6-27.9-77.7-66.4l-11-69.4c-1.3-8.4 4.4-16.2 12.8-17.6 8.3-1.3 16.2 4.4 17.6 12.8l11 69.4c3.7 23.4 23.6 40.5 47.4 40.5h386.2c23.7 0 43.7-17 47.4-40.5l54.7-346.4H219l15.9 100.5c1.3 8.4-4.4 16.2-12.8 17.6-8.3 1.3-16.2-4.4-17.6-12.8L183 412h662.2l-60.3 381.9c-6 38.4-38.7 66.3-77.7 66.3z" fill="#5E125C" p-id="1724"></path><path d="M828.8 453.7H199.5c-24.7 0-47.6-21.7-47.6-46.3v-46.1c0-24.7 23-46.1 47.6-46.1h629.2c24.7 0 44.7 20 44.7 44.7V409c0 24.7-20 44.7-44.6 44.7z" fill="#77CAF7" p-id="1725"></path><path d="M828.8 410.7H199.5c-24.7 0-49.7-24.7-49.7-49.4v46.1c0 24.7 25 49.4 49.7 49.4h629.2c24.7 0 42.6-23.1 42.6-47.7V363c0.1 24.6-17.9 47.7-42.5 47.7z" fill="#77CAF7" opacity=".5" p-id="1726"></path><path d="M828.7 469H199.5c-33.6 0-63-28.8-63-61.7v-46.1c0-32.7 29.4-61.4 63-61.4h459c8.5 0 15.4 6.9 15.4 15.4s-6.9 15.4-15.4 15.4h-459c-16.6 0-32.3 14.9-32.3 30.7v46.1c0 15.9 15.7 31 32.3 31h629.2c16.2 0 29.3-13.1 29.3-29.3V360c0-16.2-13.1-29.3-29.3-29.3-8.5 0-15.4-6.9-15.4-15.4s6.9-15.4 15.4-15.4c33.1 0 60 26.9 60 60V409c0.1 33.1-26.9 60-60 60z" fill="#5E125C" p-id="1727"></path><path d="M294.5 374.2c-13.5-13.5-13.5-35.4 0-48.8l143.8-143.8c13.5-13.5 35.4-13.5 48.8 0 13.5 13.5 13.5 35.4 0 48.8L343.3 374.2c-13.4 13.5-35.3 13.5-48.8 0zM740.1 374.2c-13.5 13.5-35.4 13.5-48.8 0L547.5 230.4c-13.5-13.5-13.5-35.4 0-48.8 13.5-13.5 35.4-13.5 48.8 0l143.8 143.8c13.5 13.5 13.5 35.3 0 48.8z" fill="#F8F9FB" p-id="1728"></path><path d="M294.5 374.2c-13.5-13.5-13.5-35.4 0-48.8l143.8-143.8c13.5-13.5 35.4-13.5 48.8 0 13.5 13.5 13.5 35.4 0 48.8L343.3 374.2c-13.4 13.5-35.3 13.5-48.8 0zM740.1 374.2c-13.5 13.5-35.4 13.5-48.8 0L547.5 230.4c-13.5-13.5-13.5-35.4 0-48.8 13.5-13.5 35.4-13.5 48.8 0l143.8 143.8c13.5 13.5 13.5 35.3 0 48.8z" fill="#F8F9FB" p-id="1729"></path><path d="M318.9 399.7c-13.3 0-25.9-5.2-35.3-14.6-9.4-9.4-14.6-21.9-14.6-35.3s5.2-25.9 14.6-35.3l71.5-71.5c6-6 15.7-6 21.7 0s6 15.7 0 21.7l-71.5 71.5c-3.6 3.6-5.6 8.4-5.6 13.6s2 9.9 5.6 13.6c7.3 7.3 19.9 7.3 27.1 0l143.8-143.8c3.6-3.6 5.6-8.4 5.6-13.6s-2-9.9-5.6-13.6c-7.3-7.3-19.9-7.3-27.1 0-6 6-15.7 6-21.7 0s-6-15.7 0-21.7c9.4-9.4 22-14.6 35.3-14.6s25.9 5.2 35.3 14.6c9.4 9.4 14.6 21.9 14.6 35.3 0 13.3-5.2 25.9-14.6 35.3L354.2 385.1c-9.4 9.4-22 14.6-35.3 14.6zM715.7 399.7c-13.3 0-25.9-5.2-35.3-14.6L536.6 241.2c-19.5-19.5-19.5-51.1 0-70.6 19.4-19.5 51.1-19.5 70.6 0L751 314.5c9.4 9.4 14.6 21.9 14.6 35.3s-5.2 25.9-14.6 35.3c-9.4 9.4-22 14.6-35.3 14.6zM571.9 186.8c-4.9 0-9.8 1.9-13.6 5.6-7.5 7.5-7.5 19.7 0 27.1l143.8 143.8c7.5 7.5 19.7 7.5 27.1 0 3.6-3.6 5.6-8.4 5.6-13.6s-2-9.9-5.6-13.6L585.5 192.4c-3.8-3.7-8.7-5.6-13.6-5.6z" fill="#5E125C" p-id="1730"></path><path d="M512.6 768.1c-17 0-30.7-13.7-30.7-30.7V560.9c0-17 13.7-30.7 30.7-30.7s30.7 13.7 30.7 30.7v176.5c0 17-13.7 30.7-30.7 30.7zM389.8 768.1c-17 0-30.7-13.7-30.7-30.7V560.9c0-17 13.7-30.7 30.7-30.7s30.7 13.7 30.7 30.7v176.5c0 17-13.7 30.7-30.7 30.7zM635.5 768.1c-17 0-30.7-13.7-30.7-30.7V560.9c0-17 13.7-30.7 30.7-30.7s30.7 13.7 30.7 30.7v176.5c0 17-13.8 30.7-30.7 30.7z" fill="#FFC963" p-id="1731"></path><path d="M512.6 783.5c-25.4 0-46.1-20.7-46.1-46.1V560.9c0-25.4 20.7-46.1 46.1-46.1 25.4 0 46.1 20.7 46.1 46.1v176.5c0 25.4-20.7 46.1-46.1 46.1z m0-238c-8.5 0-15.4 6.9-15.4 15.4v176.5c0 8.5 6.9 15.4 15.4 15.4s15.4-6.9 15.4-15.4V560.9c0-8.5-6.9-15.4-15.4-15.4zM389.8 783.5c-25.4 0-46.1-20.7-46.1-46.1V560.9c0-25.4 20.7-46.1 46.1-46.1s46.1 20.7 46.1 46.1v176.5c0 25.4-20.7 46.1-46.1 46.1z m0-238c-8.5 0-15.4 6.9-15.4 15.4v176.5c0 8.5 6.9 15.4 15.4 15.4s15.4-6.9 15.4-15.4V560.9c0-8.5-6.9-15.4-15.4-15.4zM635.5 783.5c-25.4 0-46.1-20.7-46.1-46.1V560.9c0-25.4 20.7-46.1 46.1-46.1s46.1 20.7 46.1 46.1v61.4c0 8.5-6.9 15.4-15.4 15.4s-15.4-6.9-15.4-15.4v-61.4c0-8.5-6.9-15.4-15.4-15.4s-15.4 6.9-15.4 15.4v176.5c0 8.5 6.9 15.4 15.4 15.4s15.4-6.9 15.4-15.4v-46.1c0-8.5 6.9-15.4 15.4-15.4s15.4 6.9 15.4 15.4v46.1c-0.1 25.4-20.7 46.1-46.1 46.1z" fill="#5E125C" p-id="1732"></path></svg>